<svg viewBox="0 0 1200 630" xmlns="http://www.w3.org/2000/svg" role="img" aria-label="カード相場 — 組みたいデッキを、いちばん安く。">
  <title>カード相場 — OGP</title>
  <desc>OGP image for Card Souba, 1200x630</desc>
  <rect width="1200" height="630" fill="#0a1024"/>
  <g opacity="0.06">
    <line x1="0" y1="525" x2="1200" y2="525" stroke="#e2e8f0" stroke-width="1"/>
    <line x1="0" y1="105" x2="1200" y2="105" stroke="#e2e8f0" stroke-width="1"/>
  </g>

  <g transform="translate(820, 90) scale(1.4)">
    <rect x="0" y="105" width="14" height="50" fill="#64748b"/>
    <line x1="7" y1="80" x2="7" y2="160" stroke="#64748b" stroke-width="2.5"/>
    <rect x="35" y="60" width="14" height="80" fill="#dc2626"/>
    <line x1="42" y1="40" x2="42" y2="150" stroke="#dc2626" stroke-width="2.5"/>
    <rect x="70" y="80" width="14" height="50" fill="#64748b"/>
    <line x1="77" y1="60" x2="77" y2="140" stroke="#64748b" stroke-width="2.5"/>
    <rect x="105" y="115" width="14" height="40" fill="#64748b"/>
    <line x1="112" y1="95" x2="112" y2="160" stroke="#64748b" stroke-width="2.5"/>
    <rect x="140" y="40" width="14" height="100" fill="#dc2626"/>
    <line x1="147" y1="20" x2="147" y2="150" stroke="#dc2626" stroke-width="2.5"/>
    <line x1="200" y1="-15" x2="200" y2="155" stroke="#dc2626" stroke-width="3"/>
    <rect x="178" y="-5" width="44" height="135" fill="#1a2547" stroke="#dc2626" stroke-width="3.5" rx="4"/>
    <rect x="184" y="2" width="32" height="40" fill="#dc2626" opacity="0.9" rx="1.5"/>
    <line x1="184" y1="56" x2="216" y2="56" stroke="#dc2626" stroke-width="1.8"/>
    <line x1="184" y1="68" x2="210" y2="68" stroke="#dc2626" stroke-width="1.8" opacity="0.6"/>
    <line x1="184" y1="80" x2="214" y2="80" stroke="#dc2626" stroke-width="1.8" opacity="0.6"/>
    <line x1="184" y1="92" x2="208" y2="92" stroke="#dc2626" stroke-width="1.8" opacity="0.6"/>
    <line x1="184" y1="104" x2="212" y2="104" stroke="#dc2626" stroke-width="1.8" opacity="0.6"/>
    <line x1="184" y1="116" x2="205" y2="116" stroke="#dc2626" stroke-width="1.8" opacity="0.6"/>
  </g>

  <text x="100" y="240" fill="#ffffff" font-size="120" letter-spacing="-2" font-family="'Noto Serif JP', serif" font-weight="900">カード相場</text>
  <rect x="102" y="265" width="510" height="3" fill="#e2e8f0" opacity="0.4"/>
  <text x="104" y="300" fill="#94a3b8" font-size="18" letter-spacing="6" font-family="-apple-system, BlinkMacSystemFont, system-ui, sans-serif" font-weight="700">YU-GI-OH! OCG ／ MARKET INDEX</text>

  <text x="100" y="438" fill="#ffffff" font-size="44" letter-spacing="-1" font-family="'Noto Serif JP', serif" font-weight="700">組みたいデッキを、</text>
  <text x="100" y="490" fill="#ffffff" font-size="44" letter-spacing="-1" font-family="'Noto Serif JP', serif" font-weight="700">いちばん安く。</text>

  <line x1="100" y1="555" x2="140" y2="555" stroke="#e2e8f0" stroke-width="2" opacity="0.5"/>
  <text x="155" y="562" fill="#94a3b8" font-size="20" letter-spacing="2" font-family="-apple-system, BlinkMacSystemFont, system-ui, sans-serif" font-weight="700">cardprice.run</text>
  <text x="1100" y="562" fill="#64748b" font-size="14" letter-spacing="3" text-anchor="end" font-family="-apple-system, BlinkMacSystemFont, system-ui, sans-serif" font-weight="700">REAL-TIME PRICE COMPARISON</text>
</svg>
